<svg width="840" height="1040" viewBox="0 0 840 1040" fill="none" xmlns="http://www.w3.org/2000/svg">
  <rect width="840" height="1040" rx="72" fill="#080114"/>
  <path d="M120 822C214 684 303 612 426 612C551 612 640 686 724 822V936H120V822Z" fill="url(#body)"/>
  <circle cx="421" cy="356" r="178" fill="url(#face)"/>
  <path d="M232 318C260 172 366 110 478 132C585 153 654 244 642 374C587 330 510 302 410 302C336 302 276 308 232 318Z" fill="#140536"/>
  <path d="M278 684C318 640 365 618 421 618C482 618 532 642 572 690" stroke="#FFFFFF" stroke-opacity=".75" stroke-width="24" stroke-linecap="round"/>
  <circle cx="354" cy="372" r="18" fill="#120525"/>
  <circle cx="488" cy="372" r="18" fill="#120525"/>
  <path d="M365 455C400 481 444 481 479 455" stroke="#120525" stroke-width="18" stroke-linecap="round"/>
  <path d="M160 822C204 742 264 682 340 642" stroke="#7148D4" stroke-width="28" stroke-linecap="round"/>
  <path d="M680 822C636 742 576 682 500 642" stroke="#2607DC" stroke-width="28" stroke-linecap="round"/>
  <circle cx="692" cy="174" r="48" fill="#7148D4" fill-opacity=".28"/>
  <circle cx="160" cy="234" r="34" fill="#2607DC" fill-opacity=".34"/>
  <path d="M116 146C218 72 344 38 468 54C594 70 694 137 760 236" stroke="url(#wave)" stroke-width="10" stroke-linecap="round" opacity=".7"/>
  <defs>
    <linearGradient id="face" x1="268" y1="184" x2="578" y2="526" gradientUnits="userSpaceOnUse">
      <stop stop-color="#FFE2D2"/>
      <stop offset="1" stop-color="#C89178"/>
    </linearGradient>
    <linearGradient id="body" x1="154" y1="612" x2="702" y2="962" gradientUnits="userSpaceOnUse">
      <stop stop-color="#2607DC"/>
      <stop offset=".55" stop-color="#3E2193"/>
      <stop offset="1" stop-color="#7148D4"/>
    </linearGradient>
    <linearGradient id="wave" x1="116" y1="54" x2="760" y2="236" gradientUnits="userSpaceOnUse">
      <stop stop-color="#2607DC"/>
      <stop offset=".5" stop-color="#FFFFFF"/>
      <stop offset="1" stop-color="#7148D4"/>
    </linearGradient>
  </defs>
</svg>
